<svg height="278.926158" viewBox="0 0 1009.3733 785.14667" width="358.517826" xmlns="http://www.w3.org/2000/svg" xmlns:xlink="http://www.w3.org/1999/xlink"><clipPath id="a"><path d="m6971.68 5888.56h-6419.688v-3269.84s890.848-299.98 3194.848-299.98 3224.84 299.98 3224.84 299.98z"/></clipPath><g transform="matrix(.13333333 0 0 -.13333333 0 785.14667)"><g clip-path="url(#a)"><path d="m1760.74 5772.74c-91.48-71.53-216.39-270.58-371.25-591.65-84.58-175.29-237.35-491.87-237.35-827.81 0-223.25 67.47-455.06 267.22-659.68 70.81-72.53 145.35-133.66 222.37-182.73-1.3-13.81-2.6-28.06-4.08-44.48l-8.14-90.47s119.9-51.57 154.39-66.42c-.44-55.52-1.43-177.88-2.22-276.53-8.46-1.93-22.23-5.08-22.23-5.08l-13.12-181.37c-3.88-49.03-27.6-197.47-89.35-287.81-45.87-67.15-178.53-132.87-253.72-156.12l-304.5-94.19 75.67-135.23c10.13-18.15 63.11-111.05 110.35-161.22l5.27-5.68c51.35-55.06 117.71-114.12 258.06-136.34-5.36-45.01-8.09-92.46-8.09-142.01 0-179.98 36.88-371.2 101.15-524.6 111.28-265.539 357.94-399.261 385.68-413.648 0 0 87.65-45.371 114.72-59.422 47.72-73.359 79.99-106.309 108.49-135.148l18.89-19.321 4.49-4.101c146.13-128.032 329.23-143.778 349.64-145.149 0 0 29.7-2.011 56.12-3.801 102.58-86.089 224.22-143.3 318.16-187.308l161.73-75.762s1.88 45.52 3.72 91c52.17-33.558 114.49-60.39 187.59-71.058 61.74-9.082 310.19-25.641 409.62-26 21.73-1.063 190.22-7.653 419.11 26 85.44 12.48 154.75 48.738 209.59 95.257 12.25-35.679 32.74-95.007 32.74-95.007l118.76 55.57c110.5 51.738 220.89 109.207 312.03 186.66 30.83 2.188 62.69 4.477 62.69 4.477 19.5 1.382 195.07 17.25 341.04 145.121l3.54 3.121 19.91 20.379c28.57 28.929 60.93 61.961 108.44 135.07 27.04 14.02 114.69 59.422 114.69 59.422 27.73 14.348 274.36 147.988 385.7 413.648 64.27 153.42 101.09 344.64 101.09 524.6 0 50.05-2.81 97.92-8.23 143.32 102.59 18.87 191.62 65.2 259.76 136.79 45.71 47.99 102.39 144.87 113.3 163.8l78.35 136.02-306.4 94.74c-75.18 23.25-207.81 88.92-253.69 156.09-61.77 90.4-85.52 238.87-89.44 288.48l-6.46 89.3-6.6 91.43s-13.76 3.15-22.22 5.08c-.8 98.65-1.78 221.01-2.22 276.53 34.53 14.85 154.36 66.42 154.36 66.42l-8.12 90.44c-1.46 16.45-2.78 30.7-4.05 44.51 77.03 49.1 151.58 110.23 222.36 182.77 199.77 204.58 267.22 436.39 267.22 659.63 0 335.95-152.75 652.53-237.35 827.82-154.9 321.07-279.76 520.14-371.26 591.65-97.18 75.91-219.72 87.51-319.88 30.23-158.85-90.84-191.14-301.11-202.42-514.83-2.65-50.43-3.94-105.32-3.94-162.97 0-123.67 6.02-260.08 17.65-392.71 1.29-14.28 1.9-27.82 1.9-40.56 0-23.73-2.68-43.83-6.84-61.37-74.29 26.02-137.84 14.23-180.8-10.25-9.97-4.13-19.8-8.17-29.52-12.06-79.67 97.57-155.1 187.29-221.94 250.72-372.8 353.72-787.88 582.27-1057.54 582.27-270.9 0-686.02-228.55-1058.78-582.26-66.84-63.44-142.26-153.16-221.93-250.73-8.74 3.51-17.54 7.11-26.51 10.82-40.73 23.86-105.61 39.19-183.87 11.69-4.16 17.49-6.79 37.55-6.79 61.22 0 12.72.62 26.23 1.88 40.48 11.65 132.69 17.68 269.15 17.68 392.86 0 57.59-1.31 112.44-3.96 162.85-11.27 213.73-43.61 423.99-202.45 514.83-100.15 57.28-222.71 45.68-319.86-30.23" fill="#006a4d"/><path d="m3758.76 282.191c-91.62 0-338.22 16.278-396.19 24.821-158.77 23.148-250.01 146.027-274.85 198.129-2.72 5.031-11.47 25.679-11.47 25.679-.08 0-1.66-2.941-12.83-36.488-17.69-53.051-21.14-141.352-21.14-141.352-182.48 85.469-366.3 180.629-431.02 358.18l-17.06 66.828 32.06-223.109s-159.72 10.762-279.85 116.051c-35.47 37.09-64.11 59.711-119.83 148.449-7.08 11.273-7 11.41-17.65 16.93-72.42 37.531-132.93 68.882-132.93 68.882-9.47 4.891-233.4 122.989-329.45 352.219-59.51 142-91.33 315.92-91.33 475.59 0 85.22 9.07 166.38 27.81 236.46 2.2 8.22 3.88 14.94 5.87 22.55-22.93-1.8-46.81-2.56-71.83-.97-163.8 10.69-211.67 70.33-250.95 112.04-39.26 41.71-92.52 136.9-92.52 136.9l159.47 49.32c62.9 19.46 242.47 93.88 317.22 203.28 94.65 138.46 110.75 347.71 110.92 349.82l6.5 89.95 28.37 6.53 3.4 422.47 44.41 16.25c-100.71 43.34-191.56 82.46-191.56 82.46s11.14 123.87 12.92 122.94c-71 37.35-165.26 100.08-266.08 203.36-439.01 449.62-147.23 1054.23-7.01 1344.76 142.41 295.32 261.87 490.01 336.35 548.21 59.63 46.63 130.43 54.36 189.38 20.64 87.22-49.87 128.05-169.66 140.9-413.45 8.06-153 3.17-349.02-13.4-537.87-14.09-159.92 37.52-233.43 84.33-267.08-1.9 1.37 5.7-5.36 10.05-1.94 104.35 82.4 159.82 33.62 159.82 33.62s115.89-48.42 119.66-43.84c95.12 117.13 188.11 231.85 263.8 303.68 346.48 328.77 738.84 549.64 976.43 549.64h1.22c237.57 0 629.95-220.87 976.42-549.64 75.71-71.83 168.72-186.55 263.81-303.68 3.75-4.58 119.68 43.84 119.68 43.84s55.45 48.78 159.79-33.62c4.38-3.42 11.94 3.31 10.04 1.94 46.84 33.65 98.45 107.16 84.34 267.08-16.57 188.85-21.44 384.87-13.37 537.87 12.81 243.79 53.66 363.58 140.89 413.45 58.93 33.72 129.71 25.99 189.4-20.64 74.46-58.2 193.89-252.89 336.32-548.21 140.22-290.53 432.01-895.14-7-1344.76-100.81-103.28-195.11-166.01-266.09-203.36 1.82.93 12.91-122.94 12.91-122.94s-90.83-39.12-191.58-82.46l44.45-16.25 3.41-422.47 28.33-6.53 6.52-89.95c.16-2.11 16.28-211.36 110.93-349.82 74.74-109.4 254.3-183.82 317.21-203.28l159.47-49.32s-57.9-100.55-95.78-140.34c-36.93-38.75-112.07-99.74-247.68-108.6-25.05-1.59-48.91-.83-71.86.97 2.02-7.61 3.68-14.33 5.9-22.55 18.72-70.08 27.8-151.24 27.8-236.46 0-159.67-31.82-333.59-91.32-475.59-96.06-229.23-319.96-347.328-329.44-352.219 0 0-60.56-31.351-132.94-68.882-10.64-5.52-10.58-5.657-17.67-16.93-55.68-88.738-84.39-111.359-119.81-148.449-120.11-105.289-271.71-116.051-271.71-116.051l23.91 223.109-17.05-66.828c-64.71-177.551-240.38-272.711-422.89-358.18 0 0-29.85 86.68-53.22 137.329-11.23 24.32-18.94 40.632-19 40.582 0 0-9.53-18.18-11.12-22.879-18.15-48.641-86.28-177.852-245.07-201-231.33-34.051-398.87-24.821-398.87-24.821"/><path d="m2254.76 4363.97s-277.24 37.38-243.62 419.17c33.52 381.63 26.04 920.77-122.67 804.52-33.47-26.17-130.68-153.15-295.37-494.63-164.8-341.46-368.4-816.43-15.54-1177.88 177.1-181.4 327.71-217.13 327.71-217.13s30.61 168.53 145.55 361.02c117.72 197.5 203.94 304.93 203.94 304.93" fill="#fff"/><path d="m5339.62 3477.04c-150.58 965.78-1201.15 1713-1580.95 1713-364.46 0-1412.48-752.4-1558.88-1721.3 0 0 34.55 14.55 103.32 36.2l4.45 1.94c37.5 132.95 232.63 761.81 671.18 1146.2 492.9 432.01 783.55 454.64 783.55 454.64v-1385.16c1032.94 0 1577.33-245.52 1577.33-245.52" fill="#abb2b0"/><path d="m5442.73 3063.83c-1095.15 383.71-2265.14 385.87-3360.28 2.1 0 98.64 0 191.05 1.73 287.87 1089.14 367.24 2264.89 367.27 3357.7 9.16 0-99.86 0-197.83.85-299.13" fill="#abb2b0"/><path d="m3885.2 3490.87c0-66.51-52.28-120.47-116.75-120.47-64.51 0-116.79 53.96-116.79 120.47 0 66.52 52.28 120.44 116.79 120.44 64.47 0 116.75-53.92 116.75-120.44"/><path d="m3812.49 3489.92c0 48.79-38.85 60.17-38.85 60.17 2.47.33 4.95.47 7.51.47 33.89 0 61.36-27.29 61.36-60.98 0-33.68-27.47-61.02-61.36-61.02-2.11 0-4.2.09-6.28.33 0 0 37.62 12.22 37.62 61.03" fill="#fff"/><path d="m3184.12 3444.09c0-66.52-52.27-120.45-116.79-120.45-64.5 0-116.79 53.93-116.79 120.45 0 66.54 52.29 120.43 116.79 120.43 64.52 0 116.79-53.89 116.79-120.43"/><path d="m3111.4 3443.16c0 48.76-38.9 60.16-38.9 60.16 2.5.31 5.03.46 7.54.46 33.93 0 61.38-27.31 61.38-60.99 0-33.67-27.45-61-61.38-61-2.09 0-4.19.1-6.23.33 0 0 37.59 12.21 37.59 61.04" fill="#fff"/><path d="m2523.85 3303.92c0-66.54-52.26-120.47-116.79-120.47-64.48 0-116.79 53.93-116.79 120.47 0 66.52 52.31 120.42 116.79 120.42 64.53 0 116.79-53.9 116.79-120.42"/><path d="m2451.1 3302.95c0 48.8-38.85 60.21-38.85 60.21 2.49.31 5 .43 7.51.43 33.93 0 61.37-27.29 61.37-60.99 0-33.65-27.44-61.02-61.37-61.02-2.1 0-4.17.13-6.22.34 0 0 37.56 12.24 37.56 61.03" fill="#fff"/><path d="m4571.31 3441.12c0-66.53-52.31-120.46-116.8-120.46-64.51 0-116.78 53.93-116.78 120.46s52.27 120.45 116.78 120.45c64.49 0 116.8-53.92 116.8-120.45"/><path d="m4498.52 3440.18c0 48.77-38.79 60.2-38.79 60.2 2.46.26 5 .42 7.53.42 33.91 0 61.34-27.29 61.34-60.99 0-33.66-27.43-61.01-61.34-61.01-2.16 0-4.21.11-6.28.34 0 0 37.54 12.2 37.54 61.04" fill="#fff"/><path d="m5225.7 3307.29c0-66.53-52.26-120.45-116.79-120.45-64.46 0-116.77 53.92-116.77 120.45 0 66.52 52.31 120.43 116.77 120.43 64.53 0 116.79-53.91 116.79-120.43"/><path d="m5152.96 3306.34c0 48.79-38.9 60.2-38.9 60.2 2.51.29 5.03.44 7.54.44 33.96 0 61.41-27.31 61.41-60.99 0-33.67-27.45-60.99-61.41-60.99-2.07 0-4.17.07-6.21.3 0 0 37.57 12.22 37.57 61.04" fill="#fff"/><path d="m5269.82 4364.23s277.25 37.38 243.62 419.15c-33.55 381.64-26.07 920.78 122.68 804.51 33.46-26.15 130.7-153.13 295.36-494.61 164.79-341.48 368.42-816.45 15.51-1177.86-177.08-181.43-327.67-217.17-327.67-217.17s-30.63 168.55-145.56 361.03c-117.73 197.49-203.94 304.95-203.94 304.95" fill="#fff"/><g fill="#cba569"><path d="m2625.72 3029.5s-198.75-105.04-248.42-185.95c-49.69-80.69-49.69-177.6-49.69-177.6l-115.93 64.6s24.83-40.42-57.97-226.22c-82.88-185.81-198.73-258.5-198.73-258.5s115.85-8.16 240.16 64.56c124.18 72.66 223.62 226.27 223.62 226.27s24.84-145.4-99.44-307.03c-124.18-161.6-306.41-242.44-306.41-242.44l356.18 96.96s-165.71-104.99-298.26-412.04c-132.5-306.97 57.98-622.09 57.98-622.09s-193.38 100.2-273.25 290.81c-75.84 180.98-107.68 444.48-58 630.23 49.69 185.85 49.69 226.21 49.69 226.21s-99.37-56.45-223.57-48.47c-124.26 8.11-157.39 56.53-157.39 56.53s265.02 80.81 380.96 250.5c115.97 169.66 132.48 412.08 132.48 412.08z"/><path d="m4891.38 3031.95s198.75-104.98 248.44-185.88c49.7-80.76 49.7-177.72 49.7-177.72l115.9 64.65s-24.82-40.28 57.89-226.12c82.91-185.94 198.84-258.54 198.84-258.54s-115.93-8.18-240.16 64.51c-124.27 72.72-223.58 226.27-223.58 226.27s-24.91-145.38 99.31-307.04c124.27-161.54 306.51-242.44 306.51-242.44l-356.12 96.9s165.6-104.9 298.11-411.97c132.38-307.04-57.87-622.08-57.87-622.08s206.65 95.43 273.21 290.96c67.47 197.88 107.45 334.21 57.94 630.08-31.69 189.6-49.62 226.16-49.62 226.16s99.35-56.54 223.47-48.37c124.32 8.02 157.49 56.49 157.49 56.49s-265.1 80.75-380.96 250.48c-116.05 169.69-146.79 416.38-146.79 416.38z"/><path d="m2907 3056.27-64.75 158.19s348.12-78.53 496.39-156.75c147.61-77.85 274.77-202.55 274.77-202.55l-110.67-73.73s-85.37 79.58-222.52 143.44c-137 63.65-393.22 79.1-393.22 79.1z"/><path d="m4620.74 3053.54 64.78 158.21s-348.13-78.57-496.43-156.74c-147.62-77.89-274.79-202.58-274.79-202.58l110.69-73.7s85.41 79.55 222.55 143.42c137.01 63.63 393.22 79.11 393.22 79.11z"/></g><path d="m2859.75 2166.51s-334.8 145.29-345.82 456.36c-7.22 202.53 137.65 209.25 214.76 198.56 77.09-10.89 77.09-10.89 77.09-10.89l26.97 97.6 54.89.5s-.4-102.95 45.44-184.78c28.67-51 108.7-94.01 108.7-94.01s-65.9 70.59-54.29 171.87c11.57 101.36 31.93 91.02 31.93 91.02l431.33-196.61s-.06-51.72-138.89-102.49c-138.74-50.48-281.44-44.36-281.44-44.36s107.27-58.33 246.11-37.6c197.45 29.52 299.97 99.43 299.97 99.43l-64.72-293.9s-82.35 17.28-143.68-36.55c-93.71-82.21-47.27-200.28-47.27-200.28l-412.96-186.62-192.62 26.82s10.86 41.15-36.13 176.7c-26.79 77.26-96.9 167.03-96.9 167.03s34.63-58.04 115.64-90.56c80.91-32.68 161.89-7.24 161.89-7.24" fill="#e1caa3"/><path d="m3395.95 3147.82 268.51-151.87-53.93 121.41 100.99-55.29 51.37 87.61 43.72-85.01 103.42 55.08-46.02-125.09 286.95 153.48s-164.54 14.13-390.1 15.58c-233.53 1.58-364.91-15.9-364.91-15.9" fill="#e1caa3"/><path d="m3944.6 2051.65 118.04-45.31s111.21 94.45 44.18 177.03c-86.51 106.72-191.81-45.22-191.81-45.22l-36.79 37.62s65.53 75.51 55.32 225.72c-9.26 135.99-84.77 180.8-84.77 180.8s28.37-.63 46.76 108.43c18.41 109.13 14.39 115.62 14.39 115.62l-147.21 88.52-141.32-88.52s-4.02-6.49 14.37-115.62c18.4-109.06 46.78-108.43 46.78-108.43s-75.51-44.81-84.79-180.8c-10.23-150.21 55.34-225.72 55.34-225.72l-36.82-37.62s-105.27 151.94-191.76 45.22c-67.04-82.58 44.17-177.03 44.17-177.03l118.03 45.31s80.36-109.63 175.74-109.63c95.41 0 182.15 109.63 182.15 109.63" fill="#e1caa3"/><path d="m4671.94 2162.71s334.79 145.29 345.82 456.37c7.24 202.51-137.63 209.24-214.76 198.54-77.08-10.89-77.08-10.89-77.08-10.89l-26.96 97.62-54.91.5s.42-102.98-45.44-184.79c-28.65-51.02-108.73-94.01-108.73-94.01s65.95 70.59 54.31 171.87c-11.57 101.35-31.89 90.99-31.89 90.99l-431.37-196.6s.08-51.72 138.92-102.49c138.74-50.48 281.39-44.35 281.39-44.35s-107.24-58.33-246.11-37.6c-197.42 29.54-299.94 99.43-299.94 99.43l64.74-293.9s82.33 17.26 143.66-36.54c93.7-82.21 47.26-200.3 47.26-200.3l412.95-186.61 192.64 26.8s-10.84 41.17 36.16 176.7c26.78 77.27 96.89 167.06 96.89 167.06s-34.63-58.04-115.64-90.57c-80.92-32.67-161.91-7.23-161.91-7.23" fill="#e1caa3"/><path d="m3389.52 2724.57s-100.89-110.15-226.61-67.66c-192.03 64.88-145.41 224.3-145.41 224.3l3.83 12.1z" fill="#fff"/><path d="m3086.25 2848.8s-14.17-100.27 66.48-136.52c69.64-31.37 114.56-7.46 136.77 9.39 22.19 16.82 21.95 38.81 21.95 38.81l-223.48 102.89z" fill="#006a4d"/><path d="m3256.25 2789.61c1.14-7.08.64-14.22-1.72-20.94-8.84-24.9-46.94-35.35-76.72-22.49-29.8 12.86-39.89 44.15-31.06 69.03 2.74 7.76 7.69 14.05 14.09 18.63z"/><path d="m4144.38 2722.19s100.86-110.14 226.63-67.66c191.98 64.88 145.39 224.3 145.39 224.3l-3.86 10.76z" fill="#fff"/><path d="m4447.63 2845.31s14.2-100.27-66.49-136.55c-69.61-31.35-114.54-7.44-136.76 9.4-22.16 16.85-22.24 39.9-22.24 39.9l223.82 101.81z" fill="#006a4d"/><path d="m4278.64 2787.96c-1.31-7.35-.89-14.78 1.58-21.76 8.81-24.9 46.93-35.35 76.72-22.46 29.77 12.86 39.88 44.14 31.04 69.01-2.73 7.81-7.72 14.14-14.21 18.72z"/></g><path d="m6948.85 2085.84c31.38 3.11 55.54-4.71 78.33-25.35 75.78-68.64 102.67-241.8 102.67-369.23 0-103.59-22.82-211.6-64.27-304.11-43.01-91.86-80.02-94.89-135.81-88.87-8.79.95-17.84 2.56-27.62 4.87v774.28c16.85 3.85 32.59 7 46.7 8.41zm-486.02-54.64c-.21 14.89-.33 28.81-.33 41.86 0 52.56 2.31 90.78 10.29 122.08 3.03-43.16 4.64-130.94 4.64-262.25v-592.45l.11-25.16c.04-6.07.08-12.74.08-19.82 0-25.89-.58-57.21-3.86-83.91-3.49 261.84-10.93 819.65-10.93 819.65zm-1194.45-1156.009c29.23-.64 46.87-3.261 51.25-11.011l12.36-21.801h-.91s-11.4-5.149-12.82-5.789c-2.38-.301-7.27-.738-16.29-.738 0 0-17.46 0-33.59 0zm-1155.8-110.851 89.01 64.531c28.43 19.738 47.59 28.051 73.16 30.77 0-82.262 0-444.321 0-444.321l.37-42.558c0-37.582-3.11-53.024-7.79-60.871-36.63 37.3-43.91 57.269-64.1 112.711l-7.51 20.507s-51.93 143.731-108.65 300.731c8.98 6.512 25.51 18.5 25.51 18.5zm-169.09 378.91s-2.51 6.92-4.82 13.33c10.47-.01 25.7-.04 25.7-.04 51.11-.1 102.61-.93 153.98-1.46-.6-2.41-57.12-228.998-73.17-293.31-53.93 149.31-101.69 281.48-101.69 281.48zm-536.86-377.871s41.63 187.711 61.72 278.271c0-.99 0-3.97 0-3.97l38.83-25.6c4.6-3.04 7.5-5.42 9.3-7.09-2.51-12.67-11.49-39.361-14.78-49.041-.16-.469-6.13-18.758-8.09-24.719l-178.04-522.808c-15.55-44.781-25.84-68.902-43.38-90.961-9.27 19.559-11.11 46.309-11.11 98.48v443.61c3.55-.871 5-1.692 5.16-1.789l-.02-.02.83-1.941 105.98-243.879zm-972.32 128.293c40.48 0 87.04-16.442 134.67-47.531 0 0 24.1-15.719 40.59-26.481-.27-1.078-3.45-13.82-4.12-16.508-39.4 24.149-79.61 42.77-119.08 60.278l-6.69 2.968 4.56-2.296-20.37 9.097c-8.33 3.52-27.53 11.699-41.72 19.449 3.98.582 8.1 1.024 12.16 1.024zm2489.24 420.818c.01 18.24 11.6 58.31 17.18 77.57.01.03 5.32 18.25 10.69 36.66 20.5-.84 88.99-3.63 123.98-5.06 10.78-36.14 27.33-91.59 27.33-91.59l.67-2.11c6.33-19.6 6.33-19.6 6.54-32.02l.01-1.26c0-2.95-.16-4.34-.3-5.16-1.48-1.6-5.11-4.72-14.28-11.25l-36.9-26.25s.88-67.53 1.01-77.5c-45.38 0-51.46 0-90.85 0l-.86 43.14-1.09 40.43s-23.03 22.12-24.24 23.29c-17.74 17.92-18.76 23.53-18.89 31.11zm-1030.4 617.85.29 36.26c0 .59-.13 59.65-.26 118.65 1.19-.83 3.43-2.4 3.43-2.4 19.98-14 38.5-38.23 38.81-120.22 0-.01-2.12-274.07-3.29-424.25-20.65.25-69.72.86-70.56.87-.09 14.91-.43 72.09-.43 72.09 0 .14-.6 254.44-.64 268.92 14.83-.07 32.24-.15 32.24-.15zm-224.93-354.7c9.81-.08 16.67-.38 21.03-.78 2.31-7.23 16.06-50.08 16.06-50.08s130.78-.41 144.65-.45c-1.66-2.21-15.04-20.1-15.04-20.1-23.32-30.81-54.19-41.74-117.75-41.6-14.57.03-31.57.6-48.68 2.44-.09 36.17-.17 69.2-.27 110.57zm-.81 367.85c42.77-1.04 53.65-5.87 59.25-16.58 0 0 13.95-26.67 17.77-33.97-3.06-1.48-8-3.86-9.37-4.52-2.38-.25-6.73-.57-14.43-.55l.95-.95c-3.66.4-7.08.96-11.3.97 0 0-36.36.08-42.75.09-.05 24.2-.07 31.19-.12 55.51zm-410.16 22.93 1.23-529.57c0-85.74-20.45-111.46-38.29-124.27l-36-25.83s0-98.85 0-112.23c-72.8 0-110.59 0-146.57 0 33.14 119.47 153.32 552.8 219.63 791.9zm-726.14-494.84s6.52 28.36 11.01 47.88c22.94-69.25 38.85-117.28 38.85-117.28 29.6-87.26 56.45-150.2 141.39-215.55-9.84 1.57-19.99 3.18-19.99 3.18s-12.67-50.77-13.86-55.53c-8.85 3.46-40.86 15.96-40.86 15.96-55.08 21.52-117.54 35.78-180.81 41.85 12.68 55.12 64.27 279.49 64.27 279.49zm-136.09 478.89s.02 7.14.04 12.97c32.43-97.89 97.14-293.25 141.01-425.71-15.01-1.19-152.69-12.13-152.69-12.13l-23.49-32.83c-34.98-49.48-114.79-58.71-147.48-60.39-14.65-.74-30.45-.92-46-.19-.07 42.39-.14 91.34-.21 138.45 4.09-.23 7.27-.52 9.59-.84 2.28-7.62 16.17-53.93 16.17-53.93l156.7.92.37 85.74-.48 297.43c10.22-.56 46.28-2.54 46.28-2.54zm-229.41 14.01s-.01 7.5-.01 10.28c47.11-3.49 54.91-9.82 61.33-23.21l22.08-46.13s84.95-4.66 90.05-4.94c-12.34.33-80.97 2.13-80.97 2.13l-21.45.61s-12.73-6.33-13.8-6.87c-2.46-.18-6.69-.37-13.27-.21-.09 0-21.58.41-43.86.83-.05 32.95-.1 67.51-.1 67.51zm-1153.87 11.2s22.13 112.82 42.87 218.55c3.47-19.02 4.21-42.55 4.21-73.8 0-5.26-.08-46.8-.08-46.8 0-.21 1.66-353.4 2.61-555.84-7.83-6.7-84.854-72.58-84.854-72.58-98.137-83.92-190.25-128.39-273.777-132.17-48.653-2.27-87.606 11.49-119.153 42.06-64.507 62.54-99.988 195.24-97.336 364.04 2.434 165.5 35.141 285.84 92.102 338.88 28.301 26.34 63.441 37.37 110.574 34.69 73.668-4.35 128.039-41.75 191.84-100.65l113.629-104.9zm-820.549 323.84-.765-.79-1.809-1.97c-119.1287-134.16-193.08575-369.45-188.406062-599.42 4.667972-239.61 76.640662-450.05 202.660062-592.51 148.613-173.24 319.238-184.068 451.227-174.088 111.929 8.34 232.547 36.137 330.882 76.288 0 0 20.24 8.26 22.8 9.31.1-13.51.19-27.07.19-27.07l96.02 12.08c191.45 23.05 386.39 43.51 579.12 60.78l60.59 5.46.93 3.64c2.43.2 47.83 4.12 47.83 4.12 103.12 8.89 207.22 16.83 311.49 24.01-69.61-60.25-110.82-149.098-110.82-243.169 0-223.902 174.96-305.632 290.74-359.711 30.61-14.3 92.54-43.359 101.4-58.789-6.85-3.75-23.83-8.722-49-8.722-70.04 0-156.68 33.011-215.58 82.133l-195.71 163.269 108.72-481.922 42.58-16.769c89.76-35.27 184.59-53.149 281.9-53.149 92.35 0 200.41 10.098 301.69 85.071 89.19 66.707 138.2 166.699 138.2 281.687 0 103.602-39.55 186.992-124.48 262.453l-.35.27c3.16 2.289 17.26 12.527 17.49 12.679 3.07-2 11.88-7.742 11.88-7.742v16.371c20.84 15.102 73.85 53.551 73.85 53.551 28.45 19.738 47.61 28.059 73.16 30.77 0-82.231 0-444.321 0-444.321l.39-42.519c0-54.352-6.44-62.801-14.84-68.199l-39.73-25.493v-137.55h863.77v130.57l-35.24 29.621c-2.1 1.77-6.94 5.84-10.62 9.199 2.61 16.031 13.46 47.551 17.35 58.852 0 0 5.61 16.14 11.3 32.5h131.82c10.17-30.391 22.82-68.141 22.82-68.141.35-1.012 5.76-16.289 5.8-16.379l-.03-.75c0-.769.02-2.011.04-3.082-2.44-1.957-6.53-4.98-14.16-10.039l-38.69-25.621v-136.73h993.39v127.55l-27.03 25.571c-26.21 24.75-29.7 47.191-29.7 123.261v443.598c3.49-.859 4.94-1.648 5.1-1.758l-.02-.031.79-1.859 105.95-244.243s46.84 211.082 58.82 265.114c0-46.231 0-464.75 0-464.75l.21-23.77c.1-6.57.15-12.633.15-18.211 0-46.051-3.52-60.172-14.87-67.461l-39.67-25.511v-137.5h724.66l96.65 370.64h-159.36l-25.93-31.879c-19.6-24.109-47.74-40.172-121.3-40.172-14.66 0-31.78.493-49.06 2.184v90.477c1.31-.09 2.65-.168 3.7-.27 2.12-6.16 15.97-46.367 15.97-46.367h154.47v334.137h42.6v275.401c204.59-15.73 398.82-32.65 401.94-32.92l55.15-4.83-.64 95.71-.39 33.93-18.22 23.64c-39.05 48.5-47.52 113.08-48.77 201.84l-.19 13.54s-.78 53.94-1.44 98.49c47.29-78.46 94.58-156.94 94.58-156.94l-.59 2c4.16-8.07 11.25-20.36 24.18-42.67 51.72-89.84 89.13-154.84 188.7-227.91l-.45.89c4.83-4.1 10.41-8.37 16.99-13.29 45.84-34.44 108.58-81.59 157.35-103.37l124.21-55.422s-.45 34.774-.76 57.473c47.48-6.711 367.47-51.98 367.47-51.98l39.22-4.02c155.42-16.262 331.66-34.699 486.77 123.399l.96 1c126.56 136.32 199.15 367.75 199.15 634.94 0 294.81-80.22 533.51-225.87 672.13l-1.7 1.58c-168.65 150.67-361.12 122.56-530.94 97.77 0 0-354.3-54.91-355.82-55.15-1.52-.18-366.9-45.39-366.9-45.39l1.97-79.51v.01l.51-35.36 20.4-23.73c35.64-42.07 39.52-82.67 40.84-179.55 0-.01 1.05-76.45 2.17-156.74-100.85 163.74-252.95 410.7-252.95 410.7l-27.63 44.58-397.67-27.68-3.6-76.82-1-18.03-1.05-19.06 20.63-26.08c54.16-67.25 62.52-94.54 64.2-208.89l8.11-547.57c.18-12.81.37-25.5.37-37.91 0-30.53-1.22-59.27-6.22-84.14-26.2 38.04-35.4 66.23-56.91 134.03l-271.73 855.33-65.52-2.35c-109.96-3.74-222.33-8.61-333.86-14.49l-83.01-4.37 2.07-147.1 56.59-20.63c2.51-.86 4.45-1.63 6.28-2.37-3.4-16.72-10.35-41.45-13.46-52.52l-7.44-27.61s-55.24-193.48-104.03-364.37c-30.02-23.08-149.04-114.55-149.04-114.55-25.45-19.57-93.04-71.54-141.53-69.69l-25.58.64c-9.76.18-19.94.43-29.82.99-.26 72.87-1.74 492.13-1.74 492.13l-.3 25.72-.23 24.16c0 48.36 4.42 71.9 14.81 78.74l38.9 25.6v136.9l-86.16.23c-120.07.32-241.79-.56-361.78-2.6 0 0-44.54-.77-51.87-.89-.01 3.21-.02 9.99-.02 9.99l-109.51 1.21s-12.18-5.94-13.36-6.51c-5.4-.46-15.37-.48-20.21-.45-151.56 3.03-306.92 4.2-460.84 3.43l-406.8.09 2.37-89.25.52-26.07.62-30.81 47.5-23.15c31.11-15.1 31.11-21.21 31.11-29.64-.04-14.13-6.29-36.64-11.3-54.73l-1.79-6.47c-.1-.39-58.36-217.08-63.33-235.54-39.43 125.15-83.37 264.66-83.37 264.66l-.99-1.92c-1.7 9.01-3.94 17.63-6.09 24.46-8.93 28.15-29.23 92.27-31.26 117.29.25 2.23.84 7.43.84 7.43l-.65 93.57-47.17 2.71c-2.68.16-269.86 15.51-440.55 22.45-83.48 3.38-523.26 39.92-527.69 40.29l-54.69 4.56.19-93.22v.01l.08-45.47 31.27-25.91c21.93-18.08 24.62-61.01 24.62-109.43 0-7.79-.07-15.74-.14-23.74l-.15-27.08c0-.58.4-274.47.66-454.65-14.91-15.45-85.1-88.18-85.1-88.18-37.48-38.85-86.39-60.97-145.39-65.75-13.16-1.07-28.55 1.34-45.2 6.51-.31 61.89-3.25 662.96-3.25 662.96l-.42 32.73-.28 27.34c0 53.8 5.07 60.29 22.67 74.48l32.21 25.98-.44 122.88-75.59 9.08c-117.45 14.18-237.01 27.48-355.33 39.55l-42.59 4.38c-2.9.56-44.8 8.73-44.8 8.73-33.803 6.59-68.534 16.82-105.303 27.65-57.184 16.87-115.621 34.11-177.77 40.11-215.48 20.74-400.449-41.62-534.926-180.34"/><path d="m6948.85 2085.84c31.38 3.11 55.54-4.71 78.33-25.35 75.78-68.64 102.67-241.8 102.67-369.23 0-103.59-22.82-211.6-64.27-304.11-43.01-91.86-80.02-94.89-135.81-88.87-8.79.95-17.84 2.56-27.62 4.87v774.28c16.85 3.85 32.59 7 46.7 8.41zm-486.02-54.64c-.21 14.89-.33 28.81-.33 41.86 0 52.56 2.31 90.78 10.29 122.08 3.03-43.16 4.64-130.94 4.64-262.25v-592.45l.11-25.16c.04-6.07.08-12.74.08-19.82 0-25.89-.58-57.21-3.86-83.91-3.49 261.84-10.93 819.65-10.93 819.65zm-1194.45-1156.009c29.23-.64 46.87-3.261 51.25-11.011l12.36-21.801h-.91s-11.4-5.149-12.82-5.789c-2.38-.301-7.27-.738-16.29-.738 0 0-17.46 0-33.59 0zm-1155.8-110.851 89.01 64.531c28.43 19.738 47.59 28.051 73.16 30.77 0-82.262 0-444.321 0-444.321l.37-42.558c0-37.582-3.11-53.024-7.79-60.871-36.63 37.3-43.91 57.269-64.1 112.711l-7.51 20.507s-51.93 143.731-108.65 300.731c8.98 6.512 25.51 18.5 25.51 18.5zm-169.09 378.91s-2.51 6.92-4.82 13.33c10.47-.01 25.7-.04 25.7-.04 51.11-.1 102.61-.93 153.98-1.46-.6-2.41-57.12-228.998-73.17-293.31-53.93 149.31-101.69 281.48-101.69 281.48zm-536.86-377.871s41.63 187.711 61.72 278.271c0-.99 0-3.97 0-3.97l38.83-25.6c4.6-3.04 7.5-5.42 9.3-7.09-2.51-12.67-11.49-39.361-14.78-49.041-.16-.469-6.13-18.758-8.09-24.719l-178.04-522.808c-15.55-44.781-25.84-68.902-43.38-90.961-9.27 19.559-11.11 46.309-11.11 98.48v443.61c3.55-.871 5-1.692 5.16-1.789l-.02-.02.83-1.941 105.98-243.879zm-972.32 128.293c40.48 0 87.04-16.442 134.67-47.531 0 0 24.1-15.719 40.59-26.481-.27-1.078-3.45-13.82-4.12-16.508-39.4 24.149-79.61 42.77-119.08 60.278l-6.69 2.968 4.56-2.296-20.37 9.097c-8.33 3.52-27.53 11.699-41.72 19.449 3.98.582 8.1 1.024 12.16 1.024zm2489.24 420.818c.01 18.24 11.6 58.31 17.18 77.57.01.03 5.32 18.25 10.69 36.66 20.5-.84 88.99-3.63 123.98-5.06 10.78-36.14 27.33-91.59 27.33-91.59l.67-2.11c6.33-19.6 6.33-19.6 6.54-32.02l.01-1.26c0-2.95-.16-4.34-.3-5.16-1.48-1.6-5.11-4.72-14.28-11.25l-36.9-26.25s.88-67.53 1.01-77.5c-45.38 0-51.46 0-90.85 0l-.86 43.14-1.09 40.43s-23.03 22.12-24.24 23.29c-17.74 17.92-18.76 23.53-18.89 31.11zm-1030.4 617.85.29 36.26c0 .59-.13 59.65-.26 118.65 1.19-.83 3.43-2.4 3.43-2.4 19.98-14 38.5-38.23 38.81-120.22 0-.01-2.12-274.07-3.29-424.25-20.65.25-69.72.86-70.56.87-.09 14.91-.43 72.09-.43 72.09 0 .14-.6 254.44-.64 268.92 14.83-.07 32.24-.15 32.24-.15zm-224.93-354.7c9.81-.08 16.67-.38 21.03-.78 2.31-7.23 16.06-50.08 16.06-50.08s130.78-.41 144.65-.45c-1.66-2.21-15.04-20.1-15.04-20.1-23.32-30.81-54.19-41.74-117.75-41.6-14.57.03-31.57.6-48.68 2.44-.09 36.17-.17 69.2-.27 110.57zm-.81 367.85c42.77-1.04 53.65-5.87 59.25-16.58 0 0 13.95-26.67 17.77-33.97-3.06-1.48-8-3.86-9.37-4.52-2.38-.25-6.73-.57-14.43-.55l.95-.95c-3.66.4-7.08.96-11.3.97 0 0-36.36.08-42.75.09-.05 24.2-.07 31.19-.12 55.51zm-410.16 22.93 1.23-529.57c0-85.74-20.45-111.46-38.29-124.27l-36-25.83s0-98.85 0-112.23c-72.8 0-110.59 0-146.57 0 33.14 119.47 153.32 552.8 219.63 791.9zm-726.14-494.84s6.52 28.36 11.01 47.88c22.94-69.25 38.85-117.28 38.85-117.28 29.6-87.26 56.45-150.2 141.39-215.55-9.84 1.57-19.99 3.18-19.99 3.18s-12.67-50.77-13.86-55.53c-8.85 3.46-40.86 15.96-40.86 15.96-55.08 21.52-117.54 35.78-180.81 41.85 12.68 55.12 64.27 279.49 64.27 279.49zm-136.09 478.89s.02 7.14.04 12.97c32.43-97.89 97.14-293.25 141.01-425.71-15.01-1.19-152.69-12.13-152.69-12.13l-23.49-32.83c-34.98-49.48-114.79-58.71-147.48-60.39-14.65-.74-30.45-.92-46-.19-.07 42.39-.14 91.34-.21 138.45 4.09-.23 7.27-.52 9.59-.84 2.28-7.62 16.17-53.93 16.17-53.93l156.7.92.37 85.74-.48 297.43c10.22-.56 46.28-2.54 46.28-2.54zm-229.41 14.01s-.01 7.5-.01 10.28c47.11-3.49 54.91-9.82 61.33-23.21l22.08-46.13s84.95-4.66 90.05-4.94c-12.34.33-80.97 2.13-80.97 2.13l-21.45.61s-12.73-6.33-13.8-6.87c-2.46-.18-6.69-.37-13.27-.21-.09 0-21.58.41-43.86.83-.05 32.95-.1 67.51-.1 67.51zm-1153.87 11.2s22.13 112.82 42.87 218.55c3.47-19.02 4.21-42.55 4.21-73.8 0-5.26-.08-46.8-.08-46.8 0-.21 1.66-353.4 2.61-555.84-7.83-6.7-84.854-72.58-84.854-72.58-98.137-83.92-190.25-128.39-273.777-132.17-48.653-2.27-87.606 11.49-119.153 42.06-64.507 62.54-99.988 195.24-97.336 364.04 2.434 165.5 35.141 285.84 92.102 338.88 28.301 26.34 63.441 37.37 110.574 34.69 73.668-4.35 128.039-41.75 191.84-100.65l113.629-104.9zm-820.549 323.84-.765-.79-1.809-1.97c-119.1287-134.16-193.08575-369.45-188.406062-599.42 4.667972-239.61 76.640662-450.05 202.660062-592.51 148.613-173.24 319.238-184.068 451.227-174.088 111.929 8.34 232.547 36.137 330.882 76.288 0 0 20.24 8.26 22.8 9.31.1-13.51.19-27.07.19-27.07l96.02 12.08c191.45 23.05 386.39 43.51 579.12 60.78l60.59 5.46.93 3.64c2.43.2 47.83 4.12 47.83 4.12 103.12 8.89 207.22 16.83 311.49 24.01-69.61-60.25-110.82-149.098-110.82-243.169 0-223.902 174.96-305.632 290.74-359.711 30.61-14.3 92.54-43.359 101.4-58.789-6.85-3.75-23.83-8.722-49-8.722-70.04 0-156.68 33.011-215.58 82.133l-195.71 163.269 108.72-481.922 42.58-16.769c89.76-35.27 184.59-53.149 281.9-53.149 92.35 0 200.41 10.098 301.69 85.071 89.19 66.707 138.2 166.699 138.2 281.687 0 103.602-39.55 186.992-124.48 262.453l-.35.27c3.16 2.289 17.26 12.527 17.49 12.679 3.07-2 11.88-7.742 11.88-7.742v16.371c20.84 15.102 73.85 53.551 73.85 53.551 28.45 19.738 47.61 28.059 73.16 30.77 0-82.231 0-444.321 0-444.321l.39-42.519c0-54.352-6.44-62.801-14.84-68.199l-39.73-25.493v-137.55h863.77v130.57l-35.24 29.621c-2.1 1.77-6.94 5.84-10.62 9.199 2.61 16.031 13.46 47.551 17.35 58.852 0 0 5.61 16.14 11.3 32.5h131.82c10.17-30.391 22.82-68.141 22.82-68.141.35-1.012 5.76-16.289 5.8-16.379l-.03-.75c0-.769.02-2.011.04-3.082-2.44-1.957-6.53-4.98-14.16-10.039l-38.69-25.621v-136.73h993.39v127.55l-27.03 25.571c-26.21 24.75-29.7 47.191-29.7 123.261v443.598c3.49-.859 4.94-1.648 5.1-1.758l-.02-.031.79-1.859 105.95-244.243s46.84 211.082 58.82 265.114c0-46.231 0-464.75 0-464.75l.21-23.77c.1-6.57.15-12.633.15-18.211 0-46.051-3.52-60.172-14.87-67.461l-39.67-25.511v-137.5h724.66l96.65 370.64h-159.36l-25.93-31.879c-19.6-24.109-47.74-40.172-121.3-40.172-14.66 0-31.78.493-49.06 2.184v90.477c1.31-.09 2.65-.168 3.7-.27 2.12-6.16 15.97-46.367 15.97-46.367h154.47v334.137h42.6v275.401c204.59-15.73 398.82-32.65 401.94-32.92l55.15-4.83-.64 95.71-.39 33.93-18.22 23.64c-39.05 48.5-47.52 113.08-48.77 201.84l-.19 13.54s-.78 53.94-1.44 98.49c47.29-78.46 94.58-156.94 94.58-156.94l-.59 2c4.16-8.07 11.25-20.36 24.18-42.67 51.72-89.84 89.13-154.84 188.7-227.91l-.45.89c4.83-4.1 10.41-8.37 16.99-13.29 45.84-34.44 108.58-81.59 157.35-103.37l124.21-55.422s-.45 34.774-.76 57.473c47.48-6.711 367.47-51.98 367.47-51.98l39.22-4.02c155.42-16.262 331.66-34.699 486.77 123.399l.96 1c126.56 136.32 199.15 367.75 199.15 634.94 0 294.81-80.22 533.51-225.87 672.13l-1.7 1.58c-168.65 150.67-361.12 122.56-530.94 97.77 0 0-354.3-54.91-355.82-55.15-1.52-.18-366.9-45.39-366.9-45.39l1.97-79.51v.01l.51-35.36 20.4-23.73c35.64-42.07 39.52-82.67 40.84-179.55 0-.01 1.05-76.45 2.17-156.74-100.85 163.74-252.95 410.7-252.95 410.7l-27.63 44.58-397.67-27.68-3.6-76.82-1-18.03-1.05-19.06 20.63-26.08c54.16-67.25 62.52-94.54 64.2-208.89l8.11-547.57c.18-12.81.37-25.5.37-37.91 0-30.53-1.22-59.27-6.22-84.14-26.2 38.04-35.4 66.23-56.91 134.03l-271.73 855.33-65.52-2.35c-109.96-3.74-222.33-8.61-333.86-14.49l-83.01-4.37 2.07-147.1 56.59-20.63c2.51-.86 4.45-1.63 6.28-2.37-3.4-16.72-10.35-41.45-13.46-52.52l-7.44-27.61s-55.24-193.48-104.03-364.37c-30.02-23.08-149.04-114.55-149.04-114.55-25.45-19.57-93.04-71.54-141.53-69.69l-25.58.64c-9.76.18-19.94.43-29.82.99-.26 72.87-1.74 492.13-1.74 492.13l-.3 25.72-.23 24.16c0 48.36 4.42 71.9 14.81 78.74l38.9 25.6v136.9l-86.16.23c-120.07.32-241.79-.56-361.78-2.6 0 0-44.54-.77-51.87-.89-.01 3.21-.02 9.99-.02 9.99l-109.51 1.21s-12.18-5.94-13.36-6.51c-5.4-.46-15.37-.48-20.21-.45-151.56 3.03-306.92 4.2-460.84 3.43l-406.8.09 2.37-89.25.52-26.07.62-30.81 47.5-23.15c31.11-15.1 31.11-21.21 31.11-29.64-.04-14.13-6.29-36.64-11.3-54.73l-1.79-6.47c-.1-.39-58.36-217.08-63.33-235.54-39.43 125.15-83.37 264.66-83.37 264.66l-.99-1.92c-1.7 9.01-3.94 17.63-6.09 24.46-8.93 28.15-29.23 92.27-31.26 117.29.25 2.23.84 7.43.84 7.43l-.65 93.57-47.17 2.71c-2.68.16-269.86 15.51-440.55 22.45-83.48 3.38-523.26 39.92-527.69 40.29l-54.69 4.56.19-93.22v.01l.08-45.47 31.27-25.91c21.93-18.08 24.62-61.01 24.62-109.43 0-7.79-.07-15.74-.14-23.74l-.15-27.08c0-.58.4-274.47.66-454.65-14.91-15.45-85.1-88.18-85.1-88.18-37.48-38.85-86.39-60.97-145.39-65.75-13.16-1.07-28.55 1.34-45.2 6.51-.31 61.89-3.25 662.96-3.25 662.96l-.42 32.73-.28 27.34c0 53.8 5.07 60.29 22.67 74.48l32.21 25.98-.44 122.88-75.59 9.08c-117.45 14.18-237.01 27.48-355.33 39.55l-42.59 4.38c-2.9.56-44.8 8.73-44.8 8.73-33.803 6.59-68.534 16.82-105.303 27.65-57.184 16.87-115.621 34.11-177.77 40.11-215.48 20.74-400.449-41.62-534.926-180.34"/><path d="m3662.87 650.422c10.99 33.34 19.35 58.648 36.75 111.418 18.18-52.668 26.86-77.828 38.44-111.418zm1810.1-198.031c-33.94-41.743-80.42-58.77-160.41-58.77-33.24 0-67.68 1.699-99.45 10.059v183.941h6.56l12.3.059c52.16.468 71.9-2.93 78.8-22.969l8.36-24.27h68.12v255.399h-50.18l-7.07-3.18c-1.24-.558-8.63-3.34-32.9-3.34 0 0-48.71 0-83.99 0v140.282h5.27l17.02.089c63.39.571 103.34-1.64 123.25-36.851l10.34-18.258h60.86v261.968h-47.78l-7.19-3.32c-7.01-3.24-25.57-3.24-39.11-3.24h-545.3s-570.15 0-575.8 0c-4.41.7-54.3 8.65-54.3 8.65l-7.99-32.03-74.24-297.598 88.99 64.527c45.22 31.41 75.65 41.621 124.67 41.621 10.66 0 19.79-.058 28.48-.512 0-55.347 0-495.468 0-495.468l.22-23.371c.1-6.637.16-13.028.16-19.18 0-54.051-5.03-89.399-37.99-110.59l-16.53-10.617-9.42-4.141-11.28 10.66c-61.06 57.668-70.15 82.618-94.44 149.278l-7.48 20.433-252.3 698.338h-377.34v-59.3l16.17-10.67c29.13-19.23 32.87-34.66 32.87-45.95 0-14.422-11.5-48.261-18.37-68.48l-8.56-26.168.46 1.418-178.04-522.809c-21.99-63.34-36.19-95.429-79.55-135.972l-13.49-12.907-14.07 12.789c-43.38 40.981-45.48 85.207-45.48 159.86v494.59c9.39 1 19.16 1.39 29.79 1.39 50.34 0 65.04-18.199 72.78-36l44.16-101.621 77.6 349.83s-274.23 0-463.86 0l9.17 32.42 272.99 984.28 16.34-10.64c36.76-23.98 38.94-68.81 38.15-139.77l-.16-25.05 1.23-527.21c.18-85.56-18.1-136.92-59.29-166.51l-15-10.77v-59.55l36.88.9c195.97 4.73 393.86 6.35 588.15 4.83l28.58-.22 67.78 280.85-69.85.86-10.85-14.51c-39.01-51.51-91.46-61.96-158.23-61.8-33.15.08-67.46 1.99-98.86 10.92-.09 35.66-.38 155.02-.48 202.93 12.59-.06 25.9-.1 25.9-.1l11.88.08c52.53.57 71.25-3.13 78.63-26.09l7.99-24.91 68.84-.21-.21 36.19-.55 233.05-50.38.31-7.68-3.69c-1.12-.57-7.94-3.3-31.62-3.24.1 0-61.97.13-103.26.21-.09 41.39-.26 114.75-.35 156.41 6.5-.02 15.48-.02 15.48-.02l8.13.04c66.96.31 109.19-2.48 130.82-43.85l10.05-19.22 61.38-.29.29 36.25-.53 236.44-47.85.53-7.9-3.85c-6.37-3.14-25.03-3.05-37.38-2.99h.28c-152.26 3.05-307.19 4.2-460.53 3.44l-355.29.08 1-37.5.52-26.41 19.81-9.65c36.7-17.83 59.43-36.6 59.43-74.96v-.29c-.06-20.72-7-45.8-13.13-67.91l-1.77-6.41c-.03-.11-66.74-248.22-108.09-402.01-45.68 145-135.27 429.4-135.27 429.4l-7.09 22.59c-12.31 38.77-32.67 103.13-33.83 132.93.1.94 1.08 9.57 1.08 9.57l-.31 43.29s-267.46 15.4-439.69 22.4c-85.52 3.46-529.83 40.43-529.83 40.43l.08-38.34.04-21.84 13.07-10.84c43.94-36.19 43.34-102.42 42.72-172.52l-.15-26.79.88-608.49.27-28.73c.92-69.9 1.8-135.92-42.51-175.33l-12.13-10.8.24-60.24 38.94 3.36c196.85 16.95 396.87 30.9 594.49 41.49l27.09 1.46 72.28 314.37-71.26-5.67-9.85-13.77c-45.88-64.89-136.15-78.84-185.88-81.39-33.2-1.68-67.65-1.82-98.92 6.09-.06 35.24-.3 192.08-.36 233.09 2.34.02 7.11.06 7.11.06l11.51.16c55.11.92 79.43-2.93 87.31-29.14l7.75-25.82 69.08.41.15 35.84-.4 248.4-41.47 1.09-8.96.25-8.08-4.02c-.67-.33-7.3-3.26-31.3-2.71 0 0-55.03 1.05-93.04 1.77-.07 43.17-.19 134.36-.26 180.59 5.66-.35 14.28-.86 14.28-.86l16.26-.82c64.48-3.05 105.18-8.14 126.72-53.11l9.2-19.21 63.04-3.46.14 38.07-.29 186.13 11.29-11.99c28.52-31.64 51.8-74.44 67.33-123.73l205.72-621.1c31.13-91.77 54.43-141.18 133.63-198.91 45.91-33.77 97.42-55.59 147.23-76.7l42.94-18.3h-158.23c-4.42.7-54.3 8.65-54.3 8.65l-8-32.03-74.19-297.598 88.98 64.527c45.22 31.391 75.65 41.621 124.64 41.621 10.66 0 19.81-.058 28.51-.531 0-55.328 0-495.449 0-495.449l.23-23.348c.09-6.652.16-13.031.16-19.16 0-54.094-5.04-89.442-38.02-110.613l-16.55-10.618v-59.609h762.97v56.688l-17.26 14.519c-22.06 18.492-29.18 25.84-29.18 42.113 0 20.926 12.97 58.547 20.72 81.028 0 0 13.9 40.019 23.06 66.39h203.95c10.7-31.988 34.33-102.539 34.33-102.539.37-1.043.81-2.25.81-2.25 6.92-18.73 7.64-20.699 7.64-36.109 0-22.192-8.28-31.043-36.75-49.902l-16.13-10.692v-59.246h892.59v55.449l-11.27 10.66c-43.35 40.938-45.47 85.188-45.47 159.86v494.59c9.4 1.019 19.12 1.39 29.75 1.39 50.38 0 65.06-18.179 72.77-35.98l44.14-101.762 64.48 290.591 6.13-.57 16.97-10.56c37.05-23.07 38.36-63.77 37.43-128.281l-.22-23.297v-490.043l.22-23.297c.93-64.012-.41-104.461-37.87-128.543l-16.53-10.617v-59.59h635.31l70.38 269.84h-70.17zm1633.73 918.029c-51.59-110.24-107.75-126.96-187.22-118.38-21.98 2.38-44.29 7.69-72.59 17.24v851.63c36.61 9.4 65.22 16.27 92.11 18.95 45.5 4.51 83.81-7.95 117.14-38.15 87.92-79.62 119.25-262.22 119.25-406.58 0-110.54-24.4-225.88-68.69-324.71zm-2142.72 322.82c10.75 39.59 21.82 80.31 35.79 131.78 15.01-47.95 28.38-90.67 41.93-133.99-32.04.92-47.56 1.35-77.72 2.21zm2340.87 635.47-.86.78c-150.75 134.69-323.09 109.53-489.75 85.19l-356.14-55.19-322.35-39.89.85-33.84.25-17.6 8.49-9.88c48.58-57.33 51.7-114.91 53.01-211.72 0 0 3.47-250.26 4.7-339.47-114.31 186.83-231.19 376.64-348.71 566.19l-11.62 18.75-322.6-22.46-1.5-32.02-1.02-18.43 8.79-11.12c64.31-79.82 73.33-120.41 75.07-239.41l8.11-547.56c1.22-83.8 2.37-162.98-45.13-214.09l-1.86-1.88-6.97 7.86c-68.79 82.89-76.17 106.17-107.24 204.13l-260.13 818.8-27.27-.97c-109.75-3.73-221.79-8.6-333.02-14.46l-34.58-1.81.89-63.87 23.96-8.73c40.99-14.06 41.27-30.16 41.36-35.47.31-17.69-10.28-55.45-17.29-80.41l-7.87-29.24.37 1.43-166.57-583.5c-22.01-74.34-39.61-117.08-79.8-157.98l-10.62-10.8 1.08-53.49 334.4-12.17-.78 38.14-.51 19.42-10.04 9.65c-20.97 21.13-33.2 38.69-33.65 65.93l-.01 1.29c0 24.98 11.99 66.37 19.21 91.27 0 0 13.12 45.03 21.7 74.47 39.16-1.61 163.25-6.64 199.34-8.13 10.25-34.37 37.26-124.91 37.26-124.91l.74-2.31c7.26-22.52 8.58-26.58 8.92-46.56l.02-2.09c0-29.08-10.56-39.55-35.77-57.48l-15.37-10.94.75-57.38 33.71-1.5c245.97-12.56 747.77-56.39 747.77-56.39l-.27 40.33-.2 16.86-7.93 10.29c-47.45 58.93-57.84 132.42-59.24 231.91 0 .01-3.43 235.03-4.35 298.51 72.83-120.86 191.35-317.51 191.35-317.51l23.54-40.6c50.52-87.78 83.89-145.77 174.91-212.56l16.91-12.68c43.93-33.01 104.09-78.22 147.7-97.69l52.23-23.3-13.65 1023.97c-1.61 115.82-.18 190.04 47.42 253.93l6.65 8.98 17.34-8.57c14.13-6.86 32.3-33.21 36.86-61.55 7.12-51.72 7.12-231.38 7.12-290.43v-592.45l.11-24.92c.51-82.93 1.09-176.91-51.95-205.23l-19.59-10.45v-60.18l393.94-55.719 38.27-3.93c151.21-15.82 307.55-32.191 445.65 108.559 118.26 127.38 185.68 346.06 185.68 600.65 0 280.88-74.65 506.6-210.22 635.63zm-4669.6-1608.78c-53.94 47.929-112.34 73.859-174.19 101.312l-6.69 2.957-15.19 6.531c-48.74 20.641-86 38.852-86 69.309 0 46.551 68.46 47.902 76.26 47.902 50.29 0 106.4-19.281 162.23-55.73l55.67-36.332v244.341l-22.9 8.95c-68.98 26.95-150.62 41.77-229.87 41.77-98.41 0-181-23.43-245.43-69.65l-.22-.15c-69.04-50.28-110.26-132.171-110.26-219.081 0-191.817 151.24-262.457 261.67-314.047 81.72-38.18 131.8-63.75 131.8-106.52 0-52.933-77.11-57.051-100.73-57.051-82.24 0-179.53 36.84-247.86 93.829l-81.54 68.019 70.12-310.848 17.76-7c83.84-32.953 172.48-49.652 263.44-49.652 84.12 0 182.18 8.93 271.69 75.18 76.01 56.863 117.79 142.461 117.79 241.191 0 89.36-33.17 158.668-107.55 224.77zm1345.7 1248.76-4.03-520.61.29-25.06c.14-8.1.24-15.92.24-23.42 0-57.11-5.35-96.86-37.93-118.83l-15.86-10.71v-59.2l35.92-.05c184.25-.36 371-3.52 555.08-9.42l27.6-.88 110.64 365.11-88.92-68.34c-50.05-38.48-115.07-82.34-174.16-80.1l-24.93.63c-28.54.51-55.7 1.21-78.8 8.08-.16 42.58-1.9 535.24-1.9 535.24l-.3 25.31c-.13 8.58-.23 16.84-.23 24.75 0 58.92 5.33 99.66 37.5 120.84l16.21 10.66v59.47l-35.9.1c-119.99.31-241.37-.57-360.77-2.6l-35.38-.6v-58.32l15.34-10.74c41.94-29.38 59.97-77.64 60.29-161.31zm-2187.71-436.94-94.24-97.65c-46.25-47.94-106.01-75.19-177.59-80.99-35.62-2.89-71.37 8.99-99.5 22.29-.14 28.63-3.42 697.17-3.42 697.17l-.41 32.35c-.17 10.1-.29 19.37-.29 27.97 0 59.04 5.76 84.94 41.42 113.71l13.37 10.78-.19 54.12-31.36 3.77c-117.82 14.22-237.07 27.48-354.43 39.45l-39.6 4.06.22-39.98.1-20.78 11.19-10.49c46.41-43.67 46.15-99.96 45.8-177.89l-.04-30.21 3.26-693.92.32-29.67c1.11-86.11 2.38-183.71-45-232.63l-10.14-10.47.11-20.47.28-40.04 39.73 5c192.26 23.15 387.71 43.65 580.92 60.96l25.13 2.26 6.29 24.44c13.75 53.32 22.58 100.37 31.13 145.88 7.23 38.43 14.06 74.74 23.03 109.59zm-788.85-118.97c-106.89-91.41-209.253-139.92-304.261-144.22-62.383-2.91-115.02 16.02-156.504 56.21-75.559 73.26-115.566 215.69-112.656 401.03 2.676 181.93 40.078 311.58 108.144 374.98 38.516 35.84 86.856 51.58 147.782 48.12 88.437-5.23 153.195-49.33 223.175-113.94l47.344-43.71 72.646 370.35-35.38 6.89c-36.348 7.09-72.403 17.74-110.586 28.99-54.289 16.01-110.422 32.55-167.688 38.08-199.656 19.22-370.449-37.91-493.894-165.25l-.559-.57-.515-.58c-111.172-125.2-180.1372-346.94-175.7036-564.93 4.4336-227.67 71.9136-426.63 190.0196-560.14 133.562-155.692 282.07-166.879 409.676-157.231 106.945 7.973 222.004 34.471 315.636 72.701l16.407 6.7 116.097 422.8z" fill="#fff"/><g fill="#006a4d"><path d="m938.262 2067.14c-75.008 69.24-147.465 117.62-245.551 123.44-223.832 12.7-290.324-211.07-293.961-458.49-4.434-282.39 89.18-503.9 306.781-493.76 114 5.15 226.305 67.53 326.029 152.83-26.77-97.44-53.568-194.94-80.326-292.54-96.14-39.25-209.398-63.02-304.734-70.13-145.074-10.96-266.527 12.93-380 145.19-112.961 127.69-176.8008 321.53-180.9961 537.02-3.9492 194.39 54.3981 413.89 166.6251 540.29 125.328 129.26 294.43 170.86 464.601 154.47 91.985-8.86 183.176-48.69 274.844-66.56-17.761-90.55-35.531-181.15-53.312-271.76"/><path d="m1389.17 1356.19c42.12-23.28 90.73-39.71 138.02-35.87 72.22 5.86 142.89 32.17 200.42 91.79-19.77-76.67-28.83-157.14-54.17-255.47-194.19-17.4-388.22-37.75-581.99-61.07-.02 1.86-.02 3.73-.03 5.61 63.97 66.05 55.23 190.66 54.76 287.34-1.1 231.3-2.2 462.61-3.28 693.92-.45 96.8 7.52 173.26-57.01 233.97-.01 1.85-.01 3.74-.03 5.6 117.85-12.03 235.78-25.17 353.78-39.39.01-1.8.02-3.58.02-5.36-64.04-51.7-54.47-106.96-54.03-202.03 1.19-239.69 2.36-479.39 3.54-719.04"/><path d="m2077.92 1371.27c42.99-17.89 91.17-18.32 136.72-16.01 72.93 3.73 164.01 26.64 213.44 96.54 1.89.16 3.76.31 5.63.45-18.4-80-36.8-160.02-55.21-240.1-198.68-10.64-397.25-24.49-595.66-41.56-.01 1.64-.02 3.26-.02 4.9 63.66 56.64 54.42 146.45 54.3 231.02-.29 202.83-.58 405.66-.87 608.48-.11 84.57 8.12 174.47-55.68 227.05 0 1.62-.01 3.26-.01 4.9 155.61-9.75 311.31-21.49 467.1-35.22 19.52-1.66 40.36-3.51 54.67 2.74 1.3-.12 2.61-.22 3.91-.35.1-72.09.22-144.2.32-216.29-1.3.08-2.6.13-3.91.21-35.25 73.6-109.48 70.73-173.25 74.3-17.51 1.07-35.02 2.15-52.53 3.16.12-84.72.23-169.43.36-254.14 42.73-.68 85.45-1.48 128.19-2.44 18.23-.41 36.46.65 48.17 6.49 2.17-.06 4.33-.14 6.5-.18.12-71.11.24-142.25.34-213.38-2.16 0-4.33-.02-6.5-.04-18.35 61.12-85.32 55.04-133.49 54.65-14.32-.08-28.65-.23-42.97-.37.14-98.26.3-196.54.45-294.81"/><path d="m3030.03 1986.34c7.11 25.86 16.11 55.94 16.19 83.73.2 62.11-42.25 89.55-79.69 107.76-.03 1.46-.06 2.91-.08 4.39 83.64-1.17 167.29-2.93 250.94-5.23.04-1.49.08-2.93.1-4.42-92.08-328.63-184.16-657.97-276.23-988-55.21 23.75-112.9 45.87-162 81.99-71.03 51.78-90.93 93.51-120.67 181.13-68.52 207.27-137.06 414.12-205.56 620.61-16.29 51.72-41.09 99.47-74.91 137.01-.03 1.44-.06 2.91-.1 4.37 99.28-4.33 198.61-9.45 297.94-15.39.03-1.44.06-2.89.09-4.35-.38-3.44-.77-6.88-1.15-10.32.79-40.95 30.48-127.16 42.73-167.18 57.44-182.09 114.88-364.46 172.32-547.07 46.69 173.82 93.39 347.5 140.08 520.97"/><path d="m3578.73 1404.3c42.37-18.16 89.81-20.9 134.72-21.01 71.78-.18 138.42 11.89 187 76.07 2.12-.02 4.27-.06 6.42-.08-16.81-69.7-33.65-139.43-50.49-209.18-196.38 1.55-392.84-.09-589.3-4.84v4.2c62.72 45.06 74.44 122.58 74.28 195.84-.42 175.74-.83 351.48-1.23 527.21-.17 73.24 8.62 153.82-54.32 194.88v4.24c153.21.76 306.44-.37 459.61-3.44 19.2-.1 39.75-.24 53.81 6.74 1.28-.02 2.57-.04 3.85-.04.12-66.99.3-133.95.45-200.92-1.28.02-2.57.02-3.82.02-34.78 66.52-107.88 63.3-170.73 63.12-17.23.06-34.45.08-51.68.08.15-76.13.32-152.26.51-228.38 46.37.08 92.73 0 139.1-.29 17.98-.04 35.95 1.25 47.48 6.88 2.12-.02 4.24-.04 6.36-.04.17-65.78.33-131.57.48-197.35-2.12 0-4.24 0-6.36.02-18.16 56.51-77.07 51.1-124.54 51-20.75.14-41.51.19-62.23.25.22-88.34.42-176.66.63-264.98"/><path d="m4253.81 1404.4c41.09-22.15 92.11-18.61 138.27-20.37 70.43-2.7 141.24 44.28 197.49 87.52-23.38-77.07-46.76-154.22-70.11-231.37-185.3 5.94-370.69 9.08-556.16 9.43v4.13c62.69 42.28 53.5 124.29 53.26 196.87 1.35 173.67 2.68 347.36 4.03 521.02-.27 72.52-12.6 146.5-75.63 190.66v4.18c120.05 2.05 240.08 2.91 360.05 2.6 0-1.39 0-2.8 0-4.16-62.66-41.25-53.4-127.21-53.17-201.1.66-186.46 1.28-372.93 1.97-559.41"/><path d="m6385.73 1068.66c-45.92 20.49-118.31 77.01-157.87 106.42-97.55 71.6-123.19 130.84-188.73 242.53-85.68 142.8-171.43 285.04-257.19 426.69-1.33-.05-2.64-.07-3.97-.07 2.1-142.32 4.14-284.64 6.23-426.97 1.32-93.95 10.07-183.21 67.33-254.31 0-1.64.03-3.28.06-4.9-86.1 7.52-172.29 14.49-258.48 20.82-.03 1.62-.06 3.21-.06 4.71 56.75 61.07 56.26 147.32 54.91 239.54-2.7 182.52-5.4 365.02-8.11 547.54-1.77 122.03-10.94 172.2-83.14 261.82.09 1.46.16 2.94.25 4.41 89.43 6.87 178.82 13.11 268.13 18.66 139.53-225.03 278.97-451.65 418.19-679.83-2.14 157.65-4.35 315.27-6.53 472.87-1.35 99.52-4.57 167.48-61.69 234.87-.03 1.69-.03 3.41-.08 5.1 84.22 10.05 168.36 19.54 252.4 28.43.06-1.74.06-3.54.12-5.3-55.17-74.06-56.28-159.6-54.66-276.25 4.27-322.24 8.56-644.48 12.89-966.78"/><path d="m4998.31 1955.62h-1.28c-26.49-97.44-53-194.96-79.49-292.57 57.98-1.36 115.97-3.02 173.89-4.92-31.01 99.25-62.1 198.43-93.12 297.49zm-115.49-429.44c-9.68-33.15-19.36-66.3-29-99.47-8.44-29.16-21.76-74.31-21.23-105.27.69-41.33 20.73-67.16 44.1-90.71.06-1.46.09-2.98.12-4.47-87.39 3.79-174.84 6.97-262.33 9.53-.03 1.45-.06 2.9-.09 4.33 47.71 48.56 67 99.91 88.74 173.34 55.54 194.75 111.07 389.26 166.57 583.48 7.17 29.66 26.7 87.66 26.16 118.74-.68 40.03-37.38 59.19-65.66 68.9 0 1.47-.03 2.95-.06 4.4 110.84 5.84 221.64 10.66 332.36 14.43 83.66-262.56 167.23-525.73 250.81-789.46 32.27-101.76 40.81-130.25 114.89-219.51 0-1.05 0-2.11 0-3.14l.03-1.57c-128.99 9.4-258.1 17.38-387.3 23.99-.03 1.51-.03 3-.06 4.53 29.03 20.65 51.69 40.81 50.88 89.53-.45 25.88-3.13 33.67-11.16 58.52-14.87 49.88-29.74 99.7-44.61 149.55-84.37 4.03-168.76 7.47-253.16 10.33"/><path d="m2059.54 452.988c72.25-60.269 178-102.179 270.91-102.179 58.04 0 136.74 19.64 136.74 93.043 0 159.828-393.47 127.046-393.47 420.57 0 74.687 36.09 146.758 95.45 189.978 65.8 47.19 145.78 62.91 224.46 62.91 72.29 0 149.68-13.11 216.77-39.32v-153.26c-54.19 35.372-117.42 61.559-181.9 61.559-50.3 0-112.26-22.297-112.26-83.879 0-62.851 74.83-87.781 122.57-108.73 61.93-27.52 119.97-52.418 171.59-98.301 61.92-55.02 95.46-113.969 95.46-197.859 0-85.149-34.83-161.11-103.2-212.239-76.13-56.351-158.69-68.133-250.28-68.133-85.14 0-170.32 15.754-250.28 47.172z"/><path d="m3168.87 424.172c0-74.672 1.31-133.641 56.77-186.043v-3.949h-349.6v3.949c63.22 40.613 54.17 115.269 54.17 183.422v526.738c-21.95 5.231-41.26 5.231-64.51 5.231-59.35 0-96.74-14.411-145.77-48.481l-9.03-6.539 50.31 201.76 24.5-3.91h598.64l-43.89-197.85c-19.35 44.531-59.34 57.641-105.79 57.641-23.21 0-43.85-1.309-65.8-7.852z"/><path d="m3706.83 874.891h-1.3l-85.16-258.11h175.47zm-123.85-379.961-30.97-89.098c-9.03-26.203-23.22-66.82-23.22-94.32 0-36.742 23.22-53.731 46.44-73.383v-3.949h-264.47v3.949c49.02 45.863 65.82 83.832 89.02 150.66l178.04 522.82c7.72 26.192 28.39 77.262 28.39 104.821 0 35.35-23.23 58.97-49.04 76v3.92h316.07l243.81-674.799c30.95-83.832 37.45-113.992 110.97-183.422v-2.617-1.332h-389.59v3.949c29.65 19.652 52.86 37.992 52.86 79.902 0 22.289-2.56 28.828-10.31 49.789l-42.55 127.11z"/><path d="m5176.17 379.629c42.56-17.051 90.3-19.637 135.46-19.637 72.24 0 139.3 11.77 188.33 72.047h6.45l-51.6-197.859h-571.51v3.949c63.19 40.613 54.19 113.973 54.19 182.113v490.039c0 68.141 9 142.809-54.19 182.149v3.92h451.53c19.39 0 40.02 0 54.21 6.57h3.88v-189.979h-3.88c-34.82 61.559-108.37 55.008-171.6 55.008h-41.27v-212.258h119.99c18.04 0 36.11 1.289 47.71 6.52h6.45v-183.422h-6.45c-18.05 52.43-77.4 47.191-125.14 47.191h-42.56z"/><path d="m4594.04 424.172c0-74.672 1.27-133.641 56.75-186.043v-3.949h-349.6v3.949c63.18 40.613 54.14 115.269 54.14 183.422v526.738c-21.94 5.231-41.27 5.231-64.48 5.231-59.36 0-96.77-14.411-145.79-48.481l-9.03-6.539 50.34 201.76 24.5-3.91h598.62l-43.91-197.85c-19.32 44.531-59.35 57.641-105.79 57.641-23.21 0-43.84-1.309-65.75-7.852z"/><path d="m6811.19 1248.91c46.05-17.28 75.84-24.69 105.63-27.91 104.21-11.25 170.4 23.36 225 140.06 44.71 99.76 71.92 220.38 71.92 339.85 0 232.19-73.52 501.78-277.06 481.59-36.42-3.63-72.81-13.52-125.49-27.08zm-249.87 693.62c0 65.67 0 241.25-7.6 296.31-6.06 37.72-29.93 75.75-57.26 88.99v5.7l324.46 50.29c164.14 23.97 322.91 46.06 459.73-76.17 136.74-130.12 198.72-355.51 198.72-608.79 0-227.42-57.57-448.11-175.08-574.71-136-138.599-288.24-109.98-453.02-93.77l-361.38 51.09v5.78c79.17 42.29 71.43 162.52 71.43 262.85z"/><path d="m7171.08 2539.37c-2233.88-351.64-4508.98-351.33-6742.642.87-.219 38.28-.407 76.55-.555 114.82 2233.427-353.74 4508.617-353.74 6742.047 0 .41-38.56.8-77.12 1.15-115.69"/><path d="m2070.33 0h3408.76v113.332h-3408.76z"/></g><path d="m5536.24 77.8008h-27.23v10.4414h66.24v-10.4414h-27.25v-75.83986h-11.76z"/><path d="m5596.48 1.96094h-10.8v86.28126h16.81l21.35-66.0039c.96-2.8789 1.68-5.1563 2.04-7.0781.6 2.6406 1.2 4.9179 1.92 7.0781l22.2 66.0039h16.8v-86.28126h-11.39v73.55856c-.61-2.8789-1.33-5.3984-2.05-7.5703l-22.2-65.98826h-11.04l-21.72 65.98826c-.84 2.4102-1.44 4.9297-1.92 7.5703z"/></g></svg>