<?xml version="1.0" encoding="utf-8"?><svg version="1.1" xmlns="http://www.w3.org/2000/svg" x="0px" y="0px" width="250px" height="133.7px">
<path fill="#FFFFFF" d="M243.85,52.77c-7.49-3.52-15.11-6.73-22.64-9.56l-8.75-3.04l-2.35,2.65L127.48,0L39.9,42.62l-2.79-2.59
	l-8.32,3.18c-7.52,2.82-15.14,6.04-22.64,9.56L0,55.66v32.29l7.01,5.94v7.36l-2.07,0.92l0.04,6.96v18.01l6.65,6.56
	c13.57-6.37,19.62-8.93,29.62-12.96l0.06-5.66l0.83-0.32c3.72-1.45,7.51-2.82,11.24-4.07c23.14-7.68,47.4-11.58,72.09-11.58
	c13.55,0,27.11,1.17,40.29,3.49c21.77,3.82,37.42,9.81,43.47,12.37l-0.06,5.36c10.07,4.08,19.82,8.45,29.53,13.12l6.36-6.89v-24.87
	l-2.07-0.92v-6.61l0.98,0.47l5.97-7.05l0.06-12.2V55.66L243.85,52.77z"/>
<path fill="#84754E" d="M243,89.52l3.21-3.79l-2.85-25.81l-28.45-12.43v4.55L132.8,11.73l-0.49-0.24l-5.76,3.93l24.93,12.27
	l-37.28-9.82l-9.54,5.06l15.37,7.7l-24.61-2.8L54.35,49.63l-18.88,6.3v-8.45L8.27,58.37L3.79,85.75l4.28,3.63
	c0,0,4.84-2.29,6.83-3.22l-0.23,20.72l-5.9,18.23l3.68,3.63c8.26-3.89,16.51-7.6,25.09-11c0,0,0.05-4.37,0.06-5.69
	c1.07-0.42,3.19-1.25,3.19-1.25c3.78-1.47,7.62-2.86,11.42-4.13c46.06-15.29,87.53-12.92,114.22-8.23
	c25.68,4.51,42.92,11.95,46.61,13.63c-0.02,1.23-0.06,5.3-0.06,5.3c8.48,3.43,16.66,7.16,24.85,11.05l3.5-3.79l-5.26-18.09
	l0.23-20.23C238.25,87.24,243,89.52,243,89.52z"/>
<path fill="#002F6C" d="M149.95,49.86v27.66c0,0.36-0.09,0.62-0.28,0.79c-0.31,0.28-0.91,0.39-1.78,0.3
	c-1.92-0.19-2.14-0.99-2.14-1.58V49.37c0-0.36,0.09-0.62,0.29-0.8c0.31-0.29,0.93-0.39,1.78-0.31
	C149.95,48.47,149.95,49.51,149.95,49.86z M246.26,57.59v17.33l-0.05,10.81c0,0-4.93-2.28-6.96-3.21v20.23
	c0.6,0.27,2.07,0.92,2.07,0.92v20.96l-9.78-4.39c-3.8-1.71-7.7-3.36-11.61-4.91l-4.38-1.74v-5.3c-3.82-1.68-21.7-9.1-48.26-13.6
	c-27.59-4.67-70.42-7.02-117.76,8.31c-3.91,1.28-7.86,2.67-11.74,4.14c0,0-2.17,0.83-3.28,1.25v5.69l-4.38,1.74
	c-3.83,1.52-7.74,3.17-11.61,4.9l-9.77,4.38v-16.44l-0.03-4.52c0,0,1.47-0.65,2.06-0.91V82.52c-2.03,0.94-7.01,3.23-7.01,3.23V57.59
	l3.99-1.87c7.42-3.49,14.95-6.66,22.37-9.45l6.15-2.35l2.96,2.75l88.2-42.91L211,47.04c1.32-1.48,2.63-2.95,2.63-2.95l6.28,2.18
	c7.43,2.79,14.95,5.97,22.36,9.45L246.26,57.59z M41.55,48.78l0.12,0.11c1.2-0.33,5.66-1.9,12.56-3.87l39.83-20.3l18.61,3.93
	l-13.48-6.06l13.12-7.02l32.35,9.48l-27.22-11.72l9.95-5.08l40.3,18.21L127.24,6.12L41.55,48.78z M32.95,51.44l-0.51,0.2
	c-0.15,0.06-14.71,5.88-21.87,9.24l-0.21,0.1v14.89c0,0,4.6-10.2,4.71-10.46c0.19-0.08,1.63-0.72,2.3-1.02v43.27
	c-0.04,0.11-2.29,6.61-2.29,6.61l13.06-5.52c0,0-2.15-3.51-2.25-3.68v-44.3c0.36-0.14,2.07-0.83,2.47-0.99
	c0.31,0.43,4.6,6.24,4.6,6.24V51.44z M59.91,88.14V54.2c0.07-0.15,2.49-5.04,2.49-5.04l-0.81,0.24l-12.68,3.69
	c0,0,2.19,2.52,2.35,2.71v14.56c-0.45,0.14-4.83,1.56-5.63,1.82V57.82c0.09-0.16,2.59-4.51,2.59-4.51l-14.29,4.98
	c0,0,2.85,2.19,3.11,2.39V95.3c-0.06,0.14-2.4,5.25-2.4,5.25l0.85-0.32c3.98-1.51,8.03-2.94,12.03-4.25l0.48-0.16
	c0,0-2.23-3.15-2.36-3.33V78.57c0.43-0.14,4.85-1.56,5.63-1.81v13.71c-0.07,0.15-2.39,5.07-2.39,5.07l0.82-0.26
	c3.98-1.26,12.03-3.51,12.11-3.53l0.5-0.14C62.29,91.61,60.03,88.32,59.91,88.14z M87.96,43.87l-0.43,0.07
	c-7.34,1.14-15.41,2.78-22.74,4.6l-0.58,0.15c0,0,2.8,3.3,2.97,3.5v33.17c-0.06,0.13-2.34,5.6-2.34,5.6l0.72-0.18
	c7.33-1.82,14.75-3.33,22.08-4.47l0.32-0.05l0-15.89c0,0-4.64,9.6-4.8,9.92c-0.34,0.06-6.52,1.25-7.29,1.39V70.41
	c0.41-0.08,1.62-0.33,1.98-0.4c0.25,0.41,3.74,6.13,3.74,6.13l0.02-20.51c0,0-3.68,7.69-3.84,8.01c-0.26,0.05-1.35,0.27-1.91,0.39
	v-11.2c0.53-0.1,6.92-1.32,7.36-1.4c0.25,0.41,4.73,7.65,4.73,7.65V43.87z M90.09,37.44c20.96-2.89,50.05-4.19,82.69,2.12
	c10.5,2.03,19.77,4.16,30.75,7.92l-71.14-34.92l-3.99,2.72l31.85,15.67l-45.93-12.1l-7.62,4.04l18.45,9.25l-29.54-3.36L74.16,40.18
	C79.08,39.17,84.4,38.23,90.09,37.44z M133.88,83.61c0,0-2.4-3.4-2.53-3.58V45.39c0.1-0.17,2.45-4.15,2.45-4.15l-0.63-0.02
	c-0.07,0-6.85-0.2-10.23-0.19h-0.3c0,0-4.13,18.54-4.78,21.47c-0.57-3.03-4.03-21.28-4.03-21.28l-0.32,0.01
	c-3.99,0.16-12.41,0.87-12.49,0.88l-0.65,0.05c0,0,2.68,3.77,2.81,3.96v34.62c-0.12,0.18-2.45,3.73-2.45,3.73l9.13-0.69
	c0,0-2.37-3.13-2.51-3.31V55.75c1.17,5.26,6.22,27.86,6.22,27.86l3.72-0.13l0.06-0.29c0,0,4.84-22.46,6.01-27.89v24.61
	c-0.12,0.18-2.43,3.49-2.43,3.49L133.88,83.61z M158.68,51.24c0-5.16-2.84-8.2-8.2-8.79l-5.07-0.49c-2.85-0.24-5.01,0.29-6.43,1.59
	c-1.31,1.2-1.98,3.05-1.98,5.49v27.09c0,5.01,2.77,7.78,8.22,8.25l5.06,0.49c2.97,0.33,5.1-0.13,6.51-1.39
	c1.26-1.13,1.89-2.91,1.89-5.31V51.24z M189.01,49.54l-0.53-0.14c-3.24-0.85-6.81-1.72-9.79-2.39l-0.71-0.16
	c0,0,2.31,5.48,2.37,5.61v28.5c0,0.87-0.21,1.46-0.65,1.81c-0.55,0.45-1.52,0.52-2.87,0.23c-2.48-0.54-3.68-1.77-3.68-3.76V50.77
	c0.1-0.17,2.64-4.39,2.64-4.39l-0.51-0.11c-4.14-0.87-8.37-1.64-12.57-2.3l-0.68-0.1l0.28,0.62c0,0,2.07,4.66,2.13,4.8v29.73
	c0,5.05,2.66,8.03,8.15,9.11l5.03,1.05c2.98,0.66,5.11,0.43,6.52-0.7c1.24-1,1.87-2.7,1.87-5.08V53.69
	C186.15,53.51,189.01,49.54,189.01,49.54z M214.91,100.13l-0.31-0.77c0,0-2.05-5.08-2.1-5.21V61.68c0.09-0.16,2.3-4.03,2.3-4.03
	l-9.14-3.32l0.37,0.81c0,0,2.3,5.1,2.36,5.24v15.58c-1.24-3.08-9.66-23.89-9.66-23.89l-0.17-0.05l-8.28-2.45l0.3,0.72
	c0,0,1.99,4.92,2.04,5.05v32.47c-0.08,0.16-2.24,4.21-2.24,4.21l8.78,2.6l-0.3-0.72c0,0-2.05-4.93-2.11-5.07V71.51
	c1.25,3.2,10.03,25.65,10.03,25.65L214.91,100.13z M239.7,60.98l-0.21-0.1c-7.25-3.4-14.61-6.51-21.88-9.24l-0.5-0.19v0.54v17.07
	c0,0,4.36-8.82,4.67-9.24c0.4,0.16,2.04,0.83,2.39,0.98v42.33c-0.06,0.13-2.16,5.2-2.16,5.2l0.35,0.14
	c3.99,1.58,7.98,3.27,11.87,5.02l0.76,0.34c0,0-2.27-7.29-2.3-7.39V64.39c0.67,0.3,2.11,0.94,2.3,1.02
	c0.11,0.25,4.71,10.46,4.71,10.46V60.98z"/>
<path fill="#FFFFFF" d="M32.2,52.54v11.23c-0.94-1.28-3.59-4.88-3.59-4.88l-3.48,1.39l0,0.25v44.76c0,0,1.55,2.53,1.91,3.12
	c-0.69,0.29-9.42,3.98-10.72,4.53c0.41-1.19,1.78-5.15,1.78-5.15V63.24l-3.61,1.61c0,0-2.43,5.4-3.4,7.55V61.46
	C17.56,58.44,29.65,53.56,32.2,52.54 M60.98,50.35c-1.35,0.39-9.8,2.85-10.74,3.13c0.51,0.58,1.77,2.04,1.77,2.04v15.11l0,0.27
	l-7.12,2.3V57.62c0,0,1.1-1.93,1.69-2.95c-1.53,0.53-10.02,3.5-11.1,3.87c0.7,0.53,2.3,1.77,2.3,1.77v35.16c0,0-1.22,2.66-1.72,3.76
	c3.56-1.34,7.16-2.61,10.74-3.79c-0.43-0.61-1.92-2.7-1.92-2.7V78.3l0-0.27l7.13-2.3v14.91c0,0-1.24,2.63-1.74,3.68
	c3.54-1.1,9.14-2.67,10.82-3.14c-0.44-0.64-1.92-2.81-1.92-2.81V54.02C59.16,54.02,60.46,51.39,60.98,50.35 M87.21,44.75
	c-7.01,1.1-14.65,2.65-21.66,4.38c0.57,0.67,2.37,2.79,2.37,2.79v33.6c0,0-1.42,3.39-1.83,4.39c7.01-1.72,14.11-3.16,21.12-4.26
	V73.78c-0.98,1.98-3.47,7.02-3.47,7.02l-0.09,0.17l-8.54,1.63V70.11v-0.3l3.09-0.62c0,0,1.78,2.92,2.63,4.31V58.94
	c-0.86,1.8-2.48,5.2-2.48,5.2l-0.08,0.17l-3.17,0.64V52.53l0-0.31l8.48-1.61c0,0,2.65,4.3,3.62,5.85V44.75 M117.8,66.2
	c0,0-4.47-23.58-4.58-24.2c-3.41,0.15-9.51,0.64-11.49,0.8c0.54,0.77,2.19,3.08,2.19,3.08v35.08c0,0-1.2,1.84-1.74,2.65
	c1.11-0.08,5.24-0.4,6.26-0.48c-0.54-0.71-1.83-2.42-1.83-2.42V48.98c0,0,7.43,33.27,7.56,33.86c0.45-0.01,2.1-0.07,2.53-0.09
	c0.12-0.56,7.42-34.46,7.42-34.46v31.85c0,0-1.24,1.78-1.76,2.53c1.15,0.02,8.87,0.15,10.08,0.17c-0.55-0.78-1.82-2.58-1.82-2.58
	V45.19c0,0,1.44-2.45,1.91-3.24c-1.66-0.05-6.44-0.17-9.28-0.17c-0.11,0.49-5.04,22.66-5.04,22.66L117.8,66.2z M177.78,88.45
	c2.71,0.6,4.69,0.42,5.89-0.55c1.07-0.86,1.59-2.33,1.59-4.5V53.45c0,0,2-2.78,2.5-3.47c-2.84-0.74-5.87-1.48-8.53-2.09
	c0.43,1.01,1.86,4.41,1.86,4.41v28.66c0,1.09-0.31,1.9-0.93,2.39c-0.75,0.6-1.89,0.73-3.5,0.38c-2.83-0.62-4.27-2.13-4.27-4.49
	V50.56c0,0,1.77-2.95,2.2-3.66c-3.74-0.77-7.55-1.47-11.33-2.07c0.43,0.96,1.91,4.31,1.91,4.31v29.88c0,4.64,2.47,7.38,7.55,8.38
	C172.74,87.39,177.78,88.45,177.78,88.45 M193.34,88.09c0,0-1.51,2.84-1.86,3.48c0.7,0.21,5.26,1.56,6.41,1.9
	c-0.45-1.07-1.87-4.48-1.87-4.48V67.55c0,0,11.23,28.71,11.35,29.03c0.28,0.1,5.01,1.83,6.23,2.27c-0.46-1.13-1.84-4.56-1.84-4.56
	V61.48c0,0,1.6-2.81,1.96-3.43c-0.66-0.24-5.39-1.96-6.64-2.41c0.52,1.16,2.06,4.58,2.06,4.58v19.57c0,0-10.83-26.78-10.96-27.1
	c-0.29-0.08-5.44-1.61-6.61-1.95c0.43,1.06,1.81,4.47,1.81,4.47v32.8L193.34,88.09 M217.85,66.03l3.42-6.9l0.17-0.23l3.48,1.39
	v42.98c0,0-1.68,4.05-1.93,4.64c3.63,1.45,7.25,2.99,10.81,4.57c-0.38-1.2-1.85-5.94-1.85-5.94V63.82l0-0.58l3.61,1.61
	c0,0,2.43,5.4,3.4,7.55V61.46c-7-3.28-14.09-6.27-21.11-8.92V66.03z M150.37,84.13c2.71,0.3,4.7-0.11,5.93-1.2
	c1.11-0.99,1.64-2.54,1.64-4.75V51.24c0-4.79-2.54-7.5-7.54-8.05l-5.06-0.49c-2.63-0.23-4.6,0.24-5.86,1.4
	c-1.15,1.05-1.73,2.72-1.73,4.94v27.09c0,4.61,2.47,7.07,7.54,7.51L150.37,84.13 M145.54,48.02c0.49-0.44,1.26-0.61,2.35-0.5
	c2.32,0.23,2.81,1.4,2.81,2.34v27.67c0,0.57-0.18,1.03-0.53,1.34c-0.48,0.44-1.25,0.6-2.35,0.49c-2.32-0.23-2.81-1.39-2.81-2.32
	V49.37C145,48.8,145.18,48.34,145.54,48.02"/>
</svg>
